<?xml version="1.0" encoding="UTF-8" standalone="no"?>
<!-- Created with Inkscape (http://www.inkscape.org/) -->

<svg
   xmlns:dc="http://purl.org/dc/elements/1.1/"
   xmlns:cc="http://creativecommons.org/ns#"
   xmlns:rdf="http://www.w3.org/1999/02/22-rdf-syntax-ns#"
   xmlns:svg="http://www.w3.org/2000/svg"
   xmlns="http://www.w3.org/2000/svg"
   xmlns:sodipodi="http://sodipodi.sourceforge.net/DTD/sodipodi-0.dtd"
   xmlns:inkscape="http://www.inkscape.org/namespaces/inkscape"
   width="32"
   height="32"
   id="svg2"
   version="1.1"
   inkscape:version="0.48.4 r9939"
   sodipodi:docname="myicons_smiley.svg">
  <defs
     id="defs4">
    <marker
       inkscape:stockid="SemiCircleOut"
       orient="auto"
       refY="0.0"
       refX="0.0"
       id="SemiCircleOut"
       style="overflow:visible">
      <path
         id="path4140"
         d="M -2.5,-0.80913858 C -2.5,1.9508614 -4.7400000,4.1908614 -7.5,4.1908614 L -7.5,-5.8091386 C -4.7400000,-5.8091386 -2.5,-3.5691386 -2.5,-0.80913858 z "
         style="fill-rule:evenodd;stroke:#000000;stroke-width:1.0pt"
         transform="scale(0.6) translate(7.125493,0.763446)" />
    </marker>
    <marker
       inkscape:stockid="SemiCircleIn"
       orient="auto"
       refY="0.0"
       refX="0.0"
       id="SemiCircleIn"
       style="overflow:visible">
      <path
         id="path4137"
         d="M -0.37450702,-0.045692580 C -0.37450702,2.7143074 1.8654930,4.9543074 4.6254930,4.9543074 L 4.6254930,-5.0456926 C 1.8654930,-5.0456926 -0.37450702,-2.8056926 -0.37450702,-0.045692580 z "
         style="fill-rule:evenodd;stroke:#000000;stroke-width:1.0pt"
         transform="scale(0.6)" />
    </marker>
    <marker
       inkscape:stockid="Club"
       orient="auto"
       refY="0.0"
       refX="0.0"
       id="Club"
       style="overflow:visible">
      <path
         id="path4188"
         d="M -1.5971367,-7.0977635 C -3.4863874,-7.0977635 -5.0235187,-5.5606321 -5.0235187,-3.6713813 C -5.0235187,-3.0147015 -4.7851656,-2.4444556 -4.4641095,-1.9232271 C -4.5028609,-1.8911157 -4.5437814,-1.8647646 -4.5806531,-1.8299921 C -5.2030765,-2.6849849 -6.1700514,-3.2751330 -7.3077730,-3.2751330 C -9.1970245,-3.2751331 -10.734155,-1.7380016 -10.734155,0.15124914 C -10.734155,2.0404999 -9.1970245,3.5776313 -7.3077730,3.5776313 C -6.3143268,3.5776313 -5.4391540,3.1355702 -4.8137404,2.4588126 C -4.9384274,2.8137041 -5.0235187,3.1803000 -5.0235187,3.5776313 C -5.0235187,5.4668819 -3.4863874,7.0040135 -1.5971367,7.0040135 C 0.29211394,7.0040135 1.8292454,5.4668819 1.8292454,3.5776313 C 1.8292454,2.7842354 1.5136868,2.0838028 1.0600576,1.5031550 C 2.4152718,1.7663868 3.7718375,2.2973711 4.7661444,3.8340272 C 4.0279463,3.0958289 3.5540908,1.7534117 3.5540908,-0.058529361 L 2.9247554,-0.10514681 L 3.5074733,-0.12845553 C 3.5074733,-1.9403966 3.9580199,-3.2828138 4.6962183,-4.0210121 C 3.7371277,-2.5387813 2.4390549,-1.9946496 1.1299838,-1.7134486 C 1.5341802,-2.2753578 1.8292454,-2.9268556 1.8292454,-3.6713813 C 1.8292454,-5.5606319 0.29211394,-7.0977635 -1.5971367,-7.0977635 z "
         style="fill-rule:evenodd;stroke:#000000;stroke-width:0.74587913pt"
         transform="scale(0.6)" />
    </marker>
    <marker
       inkscape:stockid="TriangleOutM"
       orient="auto"
       refY="0.0"
       refX="0.0"
       id="TriangleOutM"
       style="overflow:visible">
      <path
         id="path4104"
         d="M 5.77,0.0 L -2.88,5.0 L -2.88,-5.0 L 5.77,0.0 z "
         style="fill-rule:evenodd;stroke:#000000;stroke-width:1.0pt"
         transform="scale(0.4)" />
    </marker>
    <marker
       inkscape:stockid="DotL"
       orient="auto"
       refY="0.0"
       refX="0.0"
       id="DotL"
       style="overflow:visible">
      <path
         id="path4020"
         d="M -2.5,-1.0 C -2.5,1.7600000 -4.7400000,4.0 -7.5,4.0 C -10.260000,4.0 -12.5,1.7600000 -12.5,-1.0 C -12.5,-3.7600000 -10.260000,-6.0 -7.5,-6.0 C -4.7400000,-6.0 -2.5,-3.7600000 -2.5,-1.0 z "
         style="fill-rule:evenodd;stroke:#000000;stroke-width:1.0pt"
         transform="scale(0.8) translate(7.4, 1)" />
    </marker>
  </defs>
  <sodipodi:namedview
     id="base"
     pagecolor="#ffffff"
     bordercolor="#666666"
     borderopacity="1.0"
     inkscape:pageopacity="0.0"
     inkscape:pageshadow="2"
     inkscape:zoom="11.2"
     inkscape:cx="21.161607"
     inkscape:cy="13.644746"
     inkscape:document-units="px"
     inkscape:current-layer="layer1"
     showgrid="false"
     inkscape:window-width="1276"
     inkscape:window-height="1076"
     inkscape:window-x="1680"
     inkscape:window-y="0"
     inkscape:window-maximized="0" />
  <metadata
     id="metadata7">
    <rdf:RDF>
      <cc:Work
         rdf:about="">
        <dc:format>image/svg+xml</dc:format>
        <dc:type
           rdf:resource="http://purl.org/dc/dcmitype/StillImage" />
        <dc:title />
      </cc:Work>
    </rdf:RDF>
  </metadata>
  <g
     inkscape:label="Ebene 1"
     inkscape:groupmode="layer"
     id="layer1"
     transform="translate(0,-1020.3622)">
    <path
       style="color:#000000;fill:#000000;stroke:none;stroke-width:1.15372646;marker:none;visibility:visible;display:inline;overflow:visible;enable-background:accumulate"
       d="M 16 3.625 C 9.1689386 3.625 3.625 9.1688 3.625 16 C 3.625 22.831 9.1689386 28.375 16 28.375 C 22.83106 28.375 28.375 22.8311 28.375 16 C 28.375 9.1689 22.83106 3.625 16 3.625 z M 13.5625 8.78125 C 14.561443 8.78125 15.375 9.626 15.375 10.625 C 15.375 11.6239 14.561443 12.4375 13.5625 12.4375 C 13.029878 12.4375 12.557012 12.21045 12.21875 11.84375 L 12.1875 11.8125 C 11.909754 11.4958 11.71875 11.0747 11.71875 10.625 C 11.71875 9.626 12.563557 8.78125 13.5625 8.78125 z M 21.09375 10.1875 C 22.092693 10.1875 22.90625 11.03225 22.90625 12.03125 C 22.90625 13.03015 22.092693 13.84375 21.09375 13.84375 C 20.094806 13.84375 19.28125 13.03015 19.28125 12.03125 C 19.28125 11.03225 20.094806 10.1875 21.09375 10.1875 z M 6.9375 15.5 L 6.96875 15.5 L 7 15.5 L 7.03125 15.5 C 7.9282006 15.7589 8.9164981 15.8986 10.625 15.625 L 10.65625 15.625 L 10.6875 15.625 C 10.69978 15.633 10.71045 15.64425 10.71875 15.65625 C 10.73103 15.66425 10.7417 15.6755 10.75 15.6875 C 10.7514 15.6975 10.7514 15.70875 10.75 15.71875 C 10.7514 15.72875 10.7514 15.74 10.75 15.75 C 10.7514 15.76 10.7514 15.77125 10.75 15.78125 C 10.7514 15.79125 10.7514 15.8025 10.75 15.8125 L 10.71875 15.8125 C 10.72015 15.8225 10.72015 15.83375 10.71875 15.84375 L 10.6875 15.84375 L 10.65625 15.84375 C 9.9991037 15.94895 9.4565576 16 8.96875 16 L 9.15625 16.03125 C 8.6344092 19.44835 10.753075 22.08205 13.53125 23.03125 C 16.284091 23.97175 19.600147 23.25915 21.6875 19.71875 C 21.528253 19.57825 21.356884 19.4137 21.15625 19.1875 C 21.14405 19.1795 21.1334 19.16825 21.125 19.15625 C 21.1237 19.14625 21.1237 19.135 21.125 19.125 C 21.1237 19.115 21.1237 19.10375 21.125 19.09375 C 21.1334 19.08175 21.14405 19.0725 21.15625 19.0625 C 21.16465 19.0505 21.1753 19.04125 21.1875 19.03125 C 21.1862 19.02125 21.1862 19.01 21.1875 19 L 21.21875 19 L 21.25 19 L 21.28125 19 L 21.3125 19 C 21.3138 19.01 21.3138 19.02125 21.3125 19.03125 L 21.34375 19.03125 C 21.829165 19.57845 22.115094 19.8022 22.4375 19.9375 C 22.759906 20.0729 23.138204 20.1381 23.78125 20.3125 L 23.8125 20.3125 C 23.8138 20.3225 23.8138 20.33375 23.8125 20.34375 L 23.84375 20.34375 C 23.84505 20.35375 23.84505 20.365 23.84375 20.375 L 23.875 20.375 C 23.8763 20.385 23.8763 20.39625 23.875 20.40625 C 23.8763 20.41625 23.8763 20.4275 23.875 20.4375 C 23.8763 20.4475 23.8763 20.45875 23.875 20.46875 L 23.84375 20.46875 C 23.84505 20.47875 23.84505 20.49 23.84375 20.5 L 23.8125 20.5 L 23.78125 20.5 L 23.75 20.5 L 23.71875 20.5 C 23.203256 20.3601 22.871079 20.288 22.5625 20.1875 C 20.26272 24.092 16.368931 25.0138 13.21875 23.9375 C 10.067708 22.8609 7.6150076 19.7912 8.15625 15.9375 C 7.7219211 15.8903 7.3321305 15.7924 6.96875 15.6875 L 6.9375 15.6875 L 6.90625 15.6875 C 6.90484 15.6775 6.90484 15.66625 6.90625 15.65625 L 6.875 15.65625 C 6.87359 15.64625 6.87359 15.635 6.875 15.625 C 6.87359 15.615 6.87359 15.60375 6.875 15.59375 C 6.883294 15.58175 6.893966 15.5725 6.90625 15.5625 C 6.90484 15.5525 6.90484 15.54125 6.90625 15.53125 L 6.9375 15.53125 C 6.93609 15.52125 6.93609 15.51 6.9375 15.5 z "
       transform="translate(0,1020.3622)"
       id="path3909" />
  </g>
</svg>
